<?xml version="1.0" encoding="UTF-8" standalone="no"?><svg xmlns="http://www.w3.org/2000/svg" xmlns:xlink="http://www.w3.org/1999/xlink" contentScriptType="application/ecmascript" contentStyleType="text/css" height="588.75px" preserveAspectRatio="none" style="width:559px;height:588px;" version="1.1" viewBox="0 0 559 588" width="559.5px" zoomAndPan="magnify"><defs/><g><text fill="#000000" font-family="sans-serif" font-size="15" font-weight="bold" lengthAdjust="spacingAndGlyphs" textLength="234" x="59.4375" y="21.4233">Customer service using the</text><text fill="#000000" font-family="sans-serif" font-size="15" font-style="italic" font-weight="bold" lengthAdjust="spacingAndGlyphs" textLength="203.25" x="298.6875" y="21.4233">GDPR subject rights API</text><rect fill="#FFFFFF" height="56.5488" rx="2.25" ry="2.25" style="stroke: #7EC0EE; stroke-width: 0.75;" width="472.125" x="79.5" y="120.2285"/><rect fill="#FFFFFF" height="118.998" rx="2.25" ry="2.25" style="stroke: #7EC0EE; stroke-width: 0.75;" width="472.125" x="79.5" y="243.7266"/><rect fill="#FFFFFF" height="118.998" rx="2.25" ry="2.25" style="stroke: #7EC0EE; stroke-width: 0.75;" width="472.125" x="79.5" y="391.9746"/><line style="stroke: #7EC0EE; stroke-width: 0.75; stroke-dasharray: 5.0,5.0;" x1="137.25" x2="137.25" y1="81.1289" y2="580.1719"/><line style="stroke: #7EC0EE; stroke-width: 0.75; stroke-dasharray: 5.0,5.0;" x1="493.875" x2="493.875" y1="81.1289" y2="580.1719"/><rect fill="#EAEBE6" height="22.7227" rx="2.25" ry="2.25" style="stroke: #7EC0EE; stroke-width: 1.125;" width="101.25" x="87" y="57.6563"/><text fill="#000000" font-family="sans-serif" font-size="10.5" lengthAdjust="spacingAndGlyphs" textLength="90.75" x="92.25" y="72.6526">Customer service</text><rect fill="#EAEBE6" height="47.168" rx="2.25" ry="2.25" style="stroke: #7EC0EE; stroke-width: 1.125;" width="97.5" x="446.625" y="30.2109"/><rect fill="#EAEBE6" height="47.168" rx="2.25" ry="2.25" style="stroke: #7EC0EE; stroke-width: 1.125;" width="97.5" x="443.625" y="33.2109"/><text fill="#000000" font-family="sans-serif" font-size="10.5" lengthAdjust="spacingAndGlyphs" textLength="84" x="450.375" y="48.2073">Internal services</text><text fill="#000000" font-family="sans-serif" font-size="10.5" lengthAdjust="spacingAndGlyphs" textLength="84" x="451.875" y="60.4299">storing personal</text><text fill="#000000" font-family="sans-serif" font-size="10.5" lengthAdjust="spacingAndGlyphs" textLength="63" x="460.875" y="72.6526">data &lt;1..n&gt;</text><path d="M33,94.6289 L33,108.8789 A2.25,2.25 0 0 0 35.25,111.1289 L240,111.1289 A2.25,2.25 0 0 0 242.25,108.8789 L242.25,99.8789 L234.75,92.3789 L35.25,92.3789 A2.25,2.25 0 0 0 33,94.6289 " fill="#FFFFFF" style="stroke: #CFD2C6; stroke-width: 0.75;"/><path d="M234.75,92.3789 L234.75,98.7539 A1.125,1.125 0 0 0 235.875,99.8789 L242.25,99.8789 L234.75,92.3789 " fill="#FFFFFF" style="stroke: #CFD2C6; stroke-width: 0.75;"/><text fill="#000000" font-family="sans-serif" font-size="9.75" lengthAdjust="spacingAndGlyphs" textLength="193.5" x="37.5" y="105.1791">Data subject contacts customer service.</text><path d="M81.75,120.2285 L267.75,120.2285 L267.75,125.4785 L260.25,132.9785 L79.5,132.9785 L79.5,122.4785 " fill="#EAEBE6" style="stroke: #7EC0EE; stroke-width: 0.75;"/><rect fill="none" height="56.5488" rx="2.25" ry="2.25" style="stroke: #7EC0EE; stroke-width: 0.75;" width="472.125" x="79.5" y="120.2285"/><text fill="#000000" font-family="sans-serif" font-size="9.75" font-style="italic" lengthAdjust="spacingAndGlyphs" textLength="154.5" x="90.75" y="130.0287">Retrieve personal data contexts</text><polygon fill="#7EC0EE" points="484.875,145.9277,492.375,148.9277,484.875,151.9277,487.875,148.9277" style="stroke: #7EC0EE; stroke-width: 0.75;"/><line style="stroke: #7EC0EE; stroke-width: 0.75;" x1="137.625" x2="489.375" y1="148.9277" y2="148.9277"/><text fill="#000000" font-family="sans-serif" font-size="9.75" lengthAdjust="spacingAndGlyphs" textLength="66" x="142.875" y="145.1283">GET /contexts</text><polygon fill="#7EC0EE" points="145.875,167.7773,138.375,170.7773,145.875,173.7773,142.875,170.7773" style="stroke: #7EC0EE; stroke-width: 0.75;"/><line style="stroke: #7EC0EE; stroke-width: 0.75;" x1="141.375" x2="493.125" y1="170.7773" y2="170.7773"/><text fill="#000000" font-family="sans-serif" font-size="9.75" lengthAdjust="spacingAndGlyphs" textLength="216" x="150.375" y="166.9779">200: [{context, description, required_auths}]</text><path d="M12,206.7773 L12,232.2773 A2.25,2.25 0 0 0 14.25,234.5273 L260.25,234.5273 A2.25,2.25 0 0 0 262.5,232.2773 L262.5,212.0273 L255,204.5273 L14.25,204.5273 A2.25,2.25 0 0 0 12,206.7773 " fill="#FFFFFF" style="stroke: #CFD2C6; stroke-width: 0.75;"/><path d="M255,204.5273 L255,210.9023 A1.125,1.125 0 0 0 256.125,212.0273 L262.5,212.0273 L255,204.5273 " fill="#FFFFFF" style="stroke: #CFD2C6; stroke-width: 0.75;"/><text fill="#000000" font-family="sans-serif" font-size="9.75" lengthAdjust="spacingAndGlyphs" textLength="234.75" x="16.5" y="217.3275">Customer service acquires verified required_auth</text><text fill="#000000" font-family="sans-serif" font-size="9.75" lengthAdjust="spacingAndGlyphs" textLength="33.75" x="16.5" y="228.6771">values.</text><path d="M81.75,243.7266 L228.75,243.7266 L228.75,248.9766 L221.25,256.4766 L79.5,256.4766 L79.5,245.9766 " fill="#EAEBE6" style="stroke: #7EC0EE; stroke-width: 0.75;"/><rect fill="none" height="118.998" rx="2.25" ry="2.25" style="stroke: #7EC0EE; stroke-width: 0.75;" width="472.125" x="79.5" y="243.7266"/><text fill="#000000" font-family="sans-serif" font-size="9.75" font-style="italic" lengthAdjust="spacingAndGlyphs" textLength="115.5" x="90.75" y="253.5267">Access to personal data</text><polygon fill="#7EC0EE" points="484.875,269.4258,492.375,272.4258,484.875,275.4258,487.875,272.4258" style="stroke: #7EC0EE; stroke-width: 0.75;"/><line style="stroke: #7EC0EE; stroke-width: 0.75;" x1="137.625" x2="489.375" y1="272.4258" y2="272.4258"/><text fill="#000000" font-family="sans-serif" font-size="9.75" lengthAdjust="spacingAndGlyphs" textLength="291.75" x="142.875" y="268.6263">POST /exportrequests/{context} {auths: &lt;required_auths&gt;}</text><polygon fill="#7EC0EE" points="145.875,291.2754,138.375,294.2754,145.875,297.2754,142.875,294.2754" style="stroke: #7EC0EE; stroke-width: 0.75;"/><line style="stroke: #7EC0EE; stroke-width: 0.75;" x1="141.375" x2="493.125" y1="294.2754" y2="294.2754"/><text fill="#000000" font-family="sans-serif" font-size="9.75" lengthAdjust="spacingAndGlyphs" textLength="162.75" x="150.375" y="290.476">200: Queued {export_request_id}</text><polygon fill="#7EC0EE" points="484.875,331.875,492.375,334.875,484.875,337.875,487.875,334.875" style="stroke: #7EC0EE; stroke-width: 0.75;"/><line style="stroke: #7EC0EE; stroke-width: 0.75;" x1="137.625" x2="489.375" y1="334.875" y2="334.875"/><text fill="#000000" font-family="sans-serif" font-size="9.75" lengthAdjust="spacingAndGlyphs" textLength="230.25" x="142.875" y="331.0756">POST /exportrequeststatus {export_request_id}</text><polygon fill="#7EC0EE" points="145.875,353.7246,138.375,356.7246,145.875,359.7246,142.875,356.7246" style="stroke: #7EC0EE; stroke-width: 0.75;"/><line style="stroke: #7EC0EE; stroke-width: 0.75;" x1="141.375" x2="493.125" y1="356.7246" y2="356.7246"/><text fill="#000000" font-family="sans-serif" font-size="9.75" lengthAdjust="spacingAndGlyphs" textLength="111" x="150.375" y="352.9252">200: Done {export-url}</text><path d="M81.75,391.9746 L234,391.9746 L234,397.2246 L226.5,404.7246 L79.5,404.7246 L79.5,394.2246 " fill="#EAEBE6" style="stroke: #7EC0EE; stroke-width: 0.75;"/><rect fill="none" height="118.998" rx="2.25" ry="2.25" style="stroke: #7EC0EE; stroke-width: 0.75;" width="472.125" x="79.5" y="391.9746"/><text fill="#000000" font-family="sans-serif" font-size="9.75" font-style="italic" lengthAdjust="spacingAndGlyphs" textLength="120.75" x="90.75" y="401.7748">Deletion of personal data</text><polygon fill="#7EC0EE" points="484.875,417.6738,492.375,420.6738,484.875,423.6738,487.875,420.6738" style="stroke: #7EC0EE; stroke-width: 0.75;"/><line style="stroke: #7EC0EE; stroke-width: 0.75;" x1="137.625" x2="489.375" y1="420.6738" y2="420.6738"/><text fill="#000000" font-family="sans-serif" font-size="9.75" lengthAdjust="spacingAndGlyphs" textLength="338.25" x="142.875" y="416.8744">POST /deletionrequests/{context} {auths: &lt;required_auths&gt;, reason}</text><polygon fill="#7EC0EE" points="145.875,439.5234,138.375,442.5234,145.875,445.5234,142.875,442.5234" style="stroke: #7EC0EE; stroke-width: 0.75;"/><line style="stroke: #7EC0EE; stroke-width: 0.75;" x1="141.375" x2="493.125" y1="442.5234" y2="442.5234"/><text fill="#000000" font-family="sans-serif" font-size="9.75" lengthAdjust="spacingAndGlyphs" textLength="170.25" x="150.375" y="438.724">200: Queued {deletion_request_id}</text><polygon fill="#7EC0EE" points="484.875,480.123,492.375,483.123,484.875,486.123,487.875,483.123" style="stroke: #7EC0EE; stroke-width: 0.75;"/><line style="stroke: #7EC0EE; stroke-width: 0.75;" x1="137.625" x2="489.375" y1="483.123" y2="483.123"/><text fill="#000000" font-family="sans-serif" font-size="9.75" lengthAdjust="spacingAndGlyphs" textLength="245.25" x="142.875" y="479.3236">POST /deletionrequeststatus {deletion_request_id}</text><polygon fill="#7EC0EE" points="145.875,501.9727,138.375,504.9727,145.875,507.9727,142.875,504.9727" style="stroke: #7EC0EE; stroke-width: 0.75;"/><line style="stroke: #7EC0EE; stroke-width: 0.75;" x1="141.375" x2="493.125" y1="504.9727" y2="504.9727"/><text fill="#000000" font-family="sans-serif" font-size="9.75" lengthAdjust="spacingAndGlyphs" textLength="49.5" x="150.375" y="501.1732">200: Done</text><path d="M6,540.9727 L6,566.4727 A2.25,2.25 0 0 0 8.25,568.7227 L267,568.7227 A2.25,2.25 0 0 0 269.25,566.4727 L269.25,546.2227 L261.75,538.7227 L8.25,538.7227 A2.25,2.25 0 0 0 6,540.9727 " fill="#FFFFFF" style="stroke: #CFD2C6; stroke-width: 0.75;"/><path d="M261.75,538.7227 L261.75,545.0977 A1.125,1.125 0 0 0 262.875,546.2227 L269.25,546.2227 L261.75,538.7227 " fill="#FFFFFF" style="stroke: #CFD2C6; stroke-width: 0.75;"/><text fill="#000000" font-family="sans-serif" font-size="9.75" lengthAdjust="spacingAndGlyphs" textLength="247.5" x="10.5" y="551.5228">Customer service assembles the exported personal</text><text fill="#000000" font-family="sans-serif" font-size="9.75" lengthAdjust="spacingAndGlyphs" textLength="180.75" x="10.5" y="562.8724">data and hands it to the data subject.</text></g></svg>